<?xml version="1.0" encoding="UTF-8" standalone="no"?>
<!DOCTYPE svg PUBLIC "-//W3C//DTD SVG 1.1//EN" "http://www.w3.org/Graphics/SVG/1.1/DTD/svg11.dtd">
<svg xmlns="http://www.w3.org/2000/svg" version="1.1" viewBox="0.00 0.00 853.00 293.00">
<g stroke-width="2.00" fill="none" stroke-linecap="butt">
<path stroke="#0a94f6" vector-effect="non-scaling-stroke" d="
  M 152.54 39.36
  L 137.82 62.58"
/>
<path stroke="#0b84f8" vector-effect="non-scaling-stroke" d="
  M 68.75 143.24
  Q 60.43 156.20 53.75 170.34"
/>
<path stroke="#08bef1" vector-effect="non-scaling-stroke" d="
  M 197.60 75.00
  L 180.01 97.09"
/>
<path stroke="#0a9ef5" vector-effect="non-scaling-stroke" d="
  M 89.27 170.70
  L 74.97 196.80"
/>
<path stroke="#08bef1" vector-effect="non-scaling-stroke" d="
  M 111.37 233.08
  L 141.45 180.43"
/>
</g>
<path fill="#0b79f8" d="
  M 152.54 39.36
  L 137.82 62.58
  C 90.55 52.74 52.50 98.77 68.75 143.24
  Q 60.43 156.20 53.75 170.34
  C 38.98 148.43 34.90 121.87 42.61 96.57
  C 51.94 65.94 77.23 42.90 108.25 36.54
  Q 130.16 32.06 152.54 39.36
  Z"
/>
<path fill="#09aef3" d="
  M 152.54 39.36
  Q 181.13 49.53 197.60 75.00
  L 180.01 97.09
  Q 167.06 69.80 137.82 62.58
  L 152.54 39.36
  Z"
/>
<path fill="#07cdef" d="
  M 197.60 75.00
  Q 199.44 77.95 201.05 80.97
  Q 208.17 94.30 210.50 109.15
  C 213.84 130.44 208.61 152.63 196.48 170.49
  Q 191.90 177.24 186.36 184.29
  Q 181.88 190.00 174.90 197.00
  Q 148.20 223.76 130.58 241.40
  Q 127.68 244.31 126.52 244.42
  C 123.61 244.71 122.66 244.39 120.32 241.99
  Q 115.93 237.48 111.37 233.08
  L 141.45 180.43
  C 177.15 169.49 194.89 131.11 180.01 97.09
  L 197.60 75.00
  Z"
/>
<path fill="#105ff6" d="
  M 481.18 125.52
  Q 488.84 117.20 500.16 117.91
  Q 516.54 118.94 522.19 134.05
  C 523.34 137.12 524.23 142.99 524.13 147.38
  Q 524.09 149.00 524.15 182.03
  A 0.91 0.91 0.0 0 1 523.24 182.94
  L 508.47 182.94
  A 0.83 0.83 0.0 0 1 507.64 182.11
  Q 507.61 154.76 507.68 149.93
  C 507.79 142.25 506.49 136.39 499.37 133.75
  C 496.72 132.77 490.74 132.87 487.99 134.39
  Q 480.90 138.31 480.74 146.29
  Q 480.57 154.93 480.61 182.20
  A 0.75 0.74 90.0 0 1 479.87 182.95
  L 465.17 182.95
  A 0.79 0.78 -90.0 0 1 464.39 182.16
  L 464.39 89.91
  A 0.55 0.54 -90.0 0 1 464.93 89.36
  L 480.03 89.36
  A 0.60 0.60 0.0 0 1 480.63 89.96
  L 480.63 125.31
  A 0.32 0.31 -23.9 0 0 481.18 125.52
  Z"
/>
<circle fill="#105ff6" cx="807.35" cy="99.54" r="10.26"/>
<path fill="#105ff6" d="
  M 270.69 106.96
  L 270.69 129.80
  A 0.70 0.70 0.0 0 0 271.39 130.50
  L 307.44 130.50
  A 0.70 0.70 0.0 0 1 308.14 131.20
  L 308.14 145.69
  A 0.70 0.70 0.0 0 1 307.44 146.39
  L 271.40 146.39
  A 0.70 0.70 0.0 0 0 270.70 147.09
  L 270.70 182.24
  A 0.70 0.70 0.0 0 1 270.00 182.94
  L 254.78 182.94
  A 0.70 0.70 0.0 0 1 254.08 182.24
  L 254.08 90.60
  A 0.70 0.70 0.0 0 1 254.78 89.90
  L 311.57 89.90
  A 0.70 0.70 0.0 0 1 312.27 90.60
  L 312.27 105.56
  A 0.70 0.70 0.0 0 1 311.57 106.26
  L 271.39 106.26
  A 0.70 0.70 0.0 0 0 270.69 106.96
  Z"
/>
<path fill="#09aef3" d="
  M 116.87 131.55
  A 0.30 0.30 0.0 0 0 117.31 131.54
  Q 141.72 105.21 145.35 101.07
  C 148.82 97.12 151.81 95.15 156.45 96.02
  C 162.74 97.20 165.33 103.26 163.56 109.27
  A 2.95 2.91 73.5 0 1 163.02 110.28
  Q 160.33 113.52 158.47 115.48
  Q 153.03 121.22 127.45 148.97
  Q 122.66 154.17 120.21 154.77
  Q 115.48 155.91 111.20 153.23
  A 4.50 4.45 -4.7 0 1 110.22 152.41
  Q 103.23 144.77 88.81 129.89
  C 84.17 125.10 86.16 116.93 92.05 114.54
  C 97.28 112.42 100.91 114.51 104.69 118.66
  Q 108.96 123.35 116.87 131.55
  Z"
/>
<path fill="#105ff6" d="
  M 411.12 151.16
  C 411.14 161.77 418.26 168.85 428.35 169.03
  C 433.98 169.12 438.84 166.62 442.14 162.03
  A 1.28 1.27 -54.2 0 1 443.93 161.74
  L 454.91 169.69
  A 0.82 0.81 34.6 0 1 455.12 170.80
  C 448.63 180.77 436.59 185.19 424.64 184.24
  C 407.30 182.86 394.64 168.47 394.61 151.19
  C 394.58 133.91 407.18 119.46 424.51 118.02
  C 436.46 117.03 448.52 121.40 455.05 131.35
  A 0.82 0.81 -34.8 0 1 454.84 132.46
  L 443.89 140.45
  A 1.28 1.27 53.9 0 1 442.10 140.17
  C 438.78 135.59 433.91 133.11 428.29 133.22
  C 418.20 133.43 411.10 140.54 411.12 151.16
  Z"
/>
<path fill="#105ff6" d="
  M 553.58 125.37
  Q 553.60 125.36 555.05 123.74
  C 558.91 119.44 565.73 117.65 571.70 117.89
  Q 583.57 118.36 589.88 127.79
  A 0.45 0.45 0.0 0 0 590.61 127.81
  Q 597.43 118.70 608.70 117.94
  C 620.93 117.13 631.67 123.46 634.81 135.71
  Q 635.98 140.29 636.10 144.69
  Q 636.18 147.38 636.16 181.89
  A 1.06 1.06 0.0 0 1 635.10 182.95
  L 620.73 182.95
  A 1.02 1.02 0.0 0 1 619.71 181.93
  Q 619.70 152.61 619.72 151.05
  Q 619.86 143.21 618.81 140.55
  C 615.71 132.70 605.92 131.14 599.64 135.45
  Q 594.77 138.79 594.58 146.04
  Q 594.41 152.65 594.47 182.04
  A 0.90 0.89 -0.3 0 1 593.57 182.94
  L 579.33 182.94
  A 1.14 1.13 0.2 0 1 578.19 181.80
  Q 578.43 159.99 578.20 145.80
  C 578.07 137.10 572.26 132.18 563.57 133.36
  Q 557.26 134.21 554.41 140.04
  Q 552.85 143.23 553.12 151.65
  Q 553.14 152.42 553.13 182.26
  A 0.67 0.66 -0.0 0 1 552.46 182.92
  L 537.57 182.93
  A 0.75 0.75 0.0 0 1 536.82 182.18
  L 536.82 119.92
  A 0.70 0.70 0.0 0 1 537.52 119.22
  L 551.94 119.22
  A 1.05 1.05 0.0 0 1 552.99 120.25
  L 553.07 124.97
  A 0.42 0.41 -6.7 0 0 553.58 125.37
  Z"
/>
<path fill="#105ff6" d="
  M 712.46 151.10
  Q 712.46 181.18 712.39 182.33
  A 0.64 0.64 0.0 0 1 711.75 182.93
  L 697.27 182.97
  A 0.79 0.79 0.0 0 1 696.48 182.18
  L 696.48 177.02
  A 0.39 0.39 0.0 0 0 695.80 176.76
  C 692.59 180.32 687.74 183.03 682.85 183.84
  C 661.68 187.31 645.47 171.86 645.47 151.11
  C 645.47 130.37 661.67 114.91 682.84 118.38
  C 687.73 119.19 692.58 121.89 695.79 125.45
  A 0.39 0.39 0.0 0 0 696.47 125.19
  L 696.47 120.03
  A 0.79 0.79 0.0 0 1 697.26 119.24
  L 711.74 119.28
  A 0.64 0.64 0.0 0 1 712.38 119.88
  Q 712.45 121.03 712.46 151.10
  Z
  M 679.5746 132.9322
  A 18.12 17.43 -89.1 0 0 661.8622 150.7762
  A 18.12 17.43 -89.1 0 0 679.0054 169.1678
  A 18.12 17.43 -89.1 0 0 696.7178 151.3238
  A 18.12 17.43 -89.1 0 0 679.5746 132.9322
  Z"
/>
<path fill="#105ff6" d="
  M 743.06 125.40
  Q 749.00 118.62 758.43 117.95
  Q 766.69 117.37 772.89 120.80
  C 782.93 126.36 785.64 136.44 785.66 147.14
  Q 785.69 161.24 785.63 182.07
  A 0.86 0.86 0.0 0 1 784.77 182.93
  L 770.30 182.93
  A 1.13 1.12 90.0 0 1 769.18 181.80
  Q 769.25 170.57 769.26 146.02
  C 769.26 138.86 764.39 133.43 756.96 133.18
  Q 747.45 132.87 743.75 140.28
  Q 742.06 143.66 742.28 150.87
  Q 742.37 154.00 742.26 182.38
  A 0.58 0.57 -89.5 0 1 741.69 182.95
  L 727.01 182.95
  A 1.06 1.06 0.0 0 1 725.95 181.89
  L 725.95 120.17
  A 0.93 0.93 0.0 0 1 726.88 119.24
  L 741.50 119.24
  A 0.80 0.80 0.0 0 1 742.30 120.04
  L 742.30 125.12
  A 0.43 0.43 0.0 0 0 743.06 125.40
  Z"
/>
<path fill="#105ff6" d="
  M 317.63 151.10
  C 317.64 130.36 333.84 114.90 355.00 118.38
  C 359.89 119.18 364.74 121.89 367.95 125.45
  A 0.39 0.39 0.0 0 0 368.63 125.19
  L 368.63 120.03
  A 0.79 0.79 0.0 0 1 369.42 119.24
  L 383.90 119.28
  A 0.64 0.64 0.0 0 1 384.54 119.88
  Q 384.61 121.03 384.61 151.10
  Q 384.61 181.17 384.54 182.33
  A 0.64 0.64 0.0 0 1 383.90 182.92
  L 369.42 182.96
  A 0.79 0.79 0.0 0 1 368.63 182.17
  L 368.63 177.01
  A 0.39 0.39 0.0 0 0 367.95 176.75
  C 364.74 180.31 359.89 183.02 355.00 183.82
  C 333.83 187.30 317.63 171.84 317.63 151.10
  Z
  M 352.1775 132.9559
  A 18.09 17.44 -87.6 0 0 333.9953 150.2997
  A 18.09 17.44 -87.6 0 0 350.6625 169.1041
  A 18.09 17.44 -87.6 0 0 368.8447 151.7603
  A 18.09 17.44 -87.6 0 0 352.1775 132.9559
  Z"
/>
<rect fill="#105ff6" x="798.86" y="119.26" width="16.42" height="63.68" rx="0.82"/>
<path fill="#0a8ef7" d="
  M 68.75 143.24
  Q 75.13 159.89 89.27 170.70
  L 74.97 196.80
  Q 62.92 184.77 53.75 170.34
  Q 60.43 156.20 68.75 143.24
  Z"
/>
<path fill="#09aef3" d="
  M 141.45 180.43
  L 111.37 233.08
  L 74.97 196.80
  L 89.27 170.70
  Q 112.95 187.69 141.45 180.43
  Z"
/>
</svg>
